<svg width="18" height="16" viewBox="0 0 18 16" fill="none" xmlns="http://www.w3.org/2000/svg">
<path d="M17.7868 12.3047C17.7854 11.4715 17.5217 10.6596 17.0327 9.98231C16.5437 9.30506 15.8538 8.79631 15.0593 8.52713C15.0453 7.38407 14.7775 6.25813 14.2751 5.22948H15.3072V4.61425H16.547V3.84521C16.5499 3.50304 16.4246 3.17201 16.1956 2.91627C15.9665 2.66052 15.65 2.49826 15.3072 2.46093C15.292 2.04878 15.1167 1.65846 14.818 1.37174C14.5193 1.08503 14.1204 0.924163 13.7048 0.92285H10.968V2.15332H10.658C10.4114 2.15332 10.1749 2.25054 10.0005 2.42361C9.82612 2.59668 9.72816 2.83141 9.72816 3.07617C9.72816 3.32092 9.82612 3.55565 10.0005 3.72872C10.1749 3.90179 10.4114 3.99901 10.658 3.99901H10.968V5.22948H11.8978V11.3818H9.72816V7.99803V6.15233H7.24856V0.550634C7.24856 0.404596 7.19011 0.264541 7.08606 0.161277C6.98202 0.058013 6.8409 0 6.69376 0H0.984496C0.837352 0 0.696234 0.058013 0.592187 0.161277C0.48814 0.264541 0.429687 0.404596 0.429688 0.550634V6.21693C0.429688 6.36297 0.48814 6.50302 0.592187 6.60629C0.696234 6.70955 0.837352 6.76756 0.984496 6.76756H1.66948V7.99803H3.26572C2.97971 8.1688 2.71717 8.3756 2.48465 8.61326H1.38123C1.12912 8.61407 0.887563 8.71383 0.709291 8.89076C0.531019 9.06769 0.430505 9.30743 0.429688 9.55765V9.8222C0.434424 10.0571 0.527248 10.2819 0.690023 10.4525C0.852798 10.6232 1.07383 10.7275 1.30994 10.745C1.11285 11.4591 1.02508 12.1984 1.04959 12.9384L1.06818 13.2275H2.69541C2.63291 13.4267 2.60053 13.6341 2.59933 13.8427C2.59933 14.4138 2.82792 14.9615 3.2348 15.3654C3.64169 15.7692 4.19355 15.9961 4.76897 15.9961C5.3444 15.9961 5.89625 15.7692 6.30314 15.3654C6.71003 14.9615 6.93862 14.4138 6.93862 13.8427C6.93741 13.6341 6.90503 13.4267 6.84253 13.2275H12.9206C12.815 13.5769 12.8004 13.9471 12.8784 14.3036C12.9564 14.66 13.1243 14.991 13.3665 15.2654C13.6086 15.5398 13.917 15.7486 14.2627 15.8723C14.6084 15.9961 14.9802 16.0306 15.343 15.9727C15.7059 15.9148 16.048 15.7664 16.3372 15.5413C16.6265 15.3163 16.8534 15.022 16.9966 14.6861C17.1399 14.3502 17.1949 13.9837 17.1563 13.621C17.1178 13.2582 16.9871 12.9111 16.7764 12.6123H17.7868V12.3047ZM15.3072 3.07617C15.482 3.11216 15.639 3.20669 15.7518 3.34391C15.8647 3.48113 15.9266 3.65269 15.9271 3.82983V3.99901H15.3072V3.07617ZM10.658 3.38378C10.5758 3.38378 10.497 3.35137 10.4388 3.29368C10.3807 3.23599 10.3481 3.15775 10.3481 3.07617C10.3481 2.99458 10.3807 2.91634 10.4388 2.85865C10.497 2.80096 10.5758 2.76855 10.658 2.76855H12.5177C12.5999 2.76855 12.6787 2.80096 12.7369 2.85865C12.795 2.91634 12.8276 2.99458 12.8276 3.07617C12.8276 3.15775 12.795 3.23599 12.7369 3.29368C12.6787 3.35137 12.5999 3.38378 12.5177 3.38378H10.658ZM11.5878 4.61425V3.99901H12.5177C12.7643 3.99901 13.0008 3.90179 13.1752 3.72872C13.3496 3.55565 13.4475 3.32092 13.4475 3.07617C13.4475 2.83141 13.3496 2.59668 13.1752 2.42361C13.0008 2.25054 12.7643 2.15332 12.5177 2.15332H11.5878V1.53808H13.6986C13.9608 1.53808 14.2123 1.64147 14.3977 1.8255C14.5832 2.00953 14.6873 2.25912 14.6873 2.51938V4.61425H11.5878ZM9.10826 6.76756V7.3828H6.31872V6.76756H9.10826ZM1.04959 6.15233V0.615233H6.62867V6.15233H1.04959ZM2.28938 7.3828V6.76756H5.69882V7.3828H2.28938ZM1.38123 10.1513C1.33768 10.1513 1.29455 10.1428 1.25432 10.1263C1.21408 10.1097 1.17752 10.0855 1.14672 10.0549C1.11593 10.0244 1.0915 9.98809 1.07483 9.94816C1.05816 9.90822 1.04959 9.86542 1.04959 9.8222V9.55765C1.04959 9.51442 1.05816 9.47162 1.07483 9.43169C1.0915 9.39175 1.11593 9.35547 1.14672 9.3249C1.17752 9.29434 1.21408 9.27009 1.25432 9.25355C1.29455 9.23701 1.33768 9.2285 1.38123 9.2285H1.97943C1.79297 9.51947 1.63718 9.82872 1.51451 10.1513H1.38123ZM4.76897 15.3808C4.35795 15.3808 3.96377 15.2188 3.67314 14.9303C3.3825 14.6419 3.21923 14.2507 3.21923 13.8427C3.22093 13.6301 3.26848 13.4204 3.35871 13.2275H6.17924C6.26946 13.4204 6.31702 13.6301 6.31872 13.8427C6.31872 14.0447 6.27863 14.2447 6.20075 14.4313C6.12287 14.618 6.00871 14.7875 5.86481 14.9303C5.7209 15.0732 5.55006 15.1865 5.36203 15.2637C5.17401 15.341 4.97249 15.3808 4.76897 15.3808ZM12.6975 12.6123H1.66948C1.66948 11.9324 1.82756 10.2006 2.90928 9.06854C3.57567 8.35794 4.51791 7.99803 5.69882 7.99803H9.10826V11.997H12.5177V5.22948H13.5808C14.0117 5.98314 15.7443 9.48997 12.6975 12.6123ZM14.9973 15.3808C14.672 15.3808 14.355 15.2793 14.0911 15.0905C13.8273 14.9017 13.6299 14.6354 13.5271 14.3291C13.4242 14.0229 13.4211 13.6923 13.518 13.3841C13.615 13.076 13.8072 12.806 14.0674 12.6123H15.9271C16.1873 12.806 16.3796 13.076 16.4765 13.3841C16.5735 13.6923 16.5704 14.0229 16.4675 14.3291C16.3646 14.6354 16.1673 14.9017 15.9034 15.0905C15.6396 15.2793 15.3226 15.3808 14.9973 15.3808ZM13.9931 11.997C14.5685 11.1542 14.9242 10.1829 15.0283 9.17005C15.6127 9.3998 16.1217 9.78543 16.4992 10.2843C16.8766 10.7832 17.1077 11.376 17.1669 11.997H13.9931Z" fill="#FFFFFF"/>
</svg>
